# This file uses centimeters as units for non-parametric coordinates.

mtllib Magazine.mtl
g default
v 0.302253 7.933287 0.326642
v 0.302253 7.933287 -0.326642
v 0.302253 8.614356 -0.326642
v 0.302253 8.614356 0.326642
v 0.431874 7.933287 0.241400
v 0.431874 8.614356 0.241400
v 0.431874 8.614356 -0.241400
v 0.431874 7.933287 -0.241400
v 0.413892 9.140285 -0.326642
v 0.413892 9.140285 0.326642
v 0.542064 9.120955 0.241400
v 0.542064 9.120955 -0.241400
v 0.622992 9.626570 -0.326642
v 0.622992 9.626570 0.326642
v 0.745548 9.584362 0.241400
v 0.745548 9.584362 -0.241400
v -0.774961 7.933287 0.278405
v -0.726723 7.933287 0.326642
v -0.774961 8.614356 0.278405
v -0.726723 8.610044 0.326642
v 0.726723 7.933287 0.241400
v 0.774961 7.933287 0.193162
v 0.726723 8.619914 0.241400
v 0.774961 8.614356 0.193162
v -0.726723 8.610044 -0.326642
v -0.774961 8.614356 -0.278405
v -0.774961 7.933287 -0.278405
v -0.726723 7.933287 -0.326642
v 0.774961 8.614356 -0.193162
v 0.726723 8.619914 -0.241400
v 0.726723 7.933287 -0.241400
v 0.774961 7.933287 -0.193162
v -0.651278 9.300917 0.278405
v -0.604591 9.288002 0.326642
v -0.604591 9.288002 -0.326642
v -0.651278 9.300917 -0.278405
v 0.835488 9.085679 0.241400
v 0.881314 9.069796 0.193162
v 0.881314 9.069796 -0.193162
v 0.835488 9.085679 -0.241400
v -0.395511 9.977342 0.278405
v -0.352009 9.956004 0.326642
v -0.352009 9.956004 -0.326642
v -0.395511 9.977342 -0.278405
v 1.028071 9.496987 0.241400
v 1.069936 9.472643 0.193162
v 1.069936 9.472643 -0.193162
v 1.028071 9.496987 -0.241400
v 0.874975 10.010559 0.326642
v 0.890030 10.059689 0.278361
v 0.990038 9.977225 0.193124
v 0.974694 9.928268 0.241400
v 0.890030 10.059689 -0.278361
v 0.874975 10.010559 -0.326642
v 0.974694 9.928268 -0.241400
v 0.990038 9.977225 -0.193125
v 0.042882 10.691511 0.274670
v 0.082169 10.663306 0.326642
v 0.110169 10.702740 0.274670
v 0.110169 10.702740 -0.274670
v 0.082169 10.663306 -0.326642
v 0.042882 10.691511 -0.274670
v 1.229980 9.779377 0.194854
v 1.200646 9.741045 0.241400
v 1.239018 9.711761 0.194854
v 1.228674 9.780453 -0.193162
v 1.239018 9.711761 -0.194854
v 1.200646 9.741045 -0.241400
vt 0.548753 0.000000
vt 0.569661 0.750000
vt 0.375000 0.768460
vt 0.548753 1.000000
vt 0.382781 1.000000
vt 0.375000 0.981540
vt 0.569661 1.000000
vt 0.617219 0.750000
vt 0.625000 0.774978
vt 0.625000 0.975022
vt 0.617219 1.000000
vt 0.382781 -0.000000
vt 0.375000 0.268460
vt 0.649978 0.000000
vt 0.625000 0.250000
vt 0.649978 0.250000
vt 0.143460 0.250000
vt 0.125000 0.248418
vt 0.125000 -0.000000
vt 0.143460 -0.000000
vt 0.625000 0.475022
vt 0.875000 0.250000
vt 0.875000 0.000000
vt 0.382971 0.250000
vt 0.617198 0.250000
vt 0.382971 0.500000
vt 0.617198 0.500000
vt 0.383383 0.269889
vt 0.383383 0.480111
vt 0.375000 0.480111
vt 0.625000 0.274102
vt 0.625000 0.475898
vt 0.617219 0.475022
vt 0.546422 0.481524
vt 0.567330 0.279919
vt 0.850022 0.000000
vt 0.850022 0.250000
vt 0.356540 -0.000000
vt 0.356540 0.250000
vt 0.382781 0.501583
vt 0.548753 0.750000
vt 0.382781 0.750000
vt 0.546422 0.268476
vt 0.548753 0.250000
vt 0.569661 0.000000
vt 0.617219 0.000000
vt 0.617024 0.250000
vt 0.567330 0.477889
vt 0.617492 0.274102
vt 0.569661 0.500000
vt 0.382781 0.248418
vt 0.548753 0.250000
vt 0.548753 0.500000
vt 0.382813 0.500000
vt 0.375000 0.481540
vt 0.375000 0.268459
vt 0.569661 0.250000
vt 0.616922 0.250000
vt 0.625000 0.274978
vt 0.625000 0.475022
vt 0.617024 0.500000
vt 0.569661 0.500000
vt 0.382813 0.250000
vt 0.548753 0.500000
vt 0.382827 0.500000
vt 0.375000 0.481540
vt 0.375000 0.268460
vt 0.569661 0.250000
vt 0.616940 0.250000
vt 0.625000 0.274978
vt 0.625000 0.475022
vt 0.616922 0.500000
vt 0.569661 0.250000
vt 0.548753 0.250000
vt 0.548753 0.500000
vt 0.569661 0.500000
vt 0.382827 0.250000
vt 0.548753 0.250000
vt 0.548753 0.500000
vt 0.375000 0.481540
vt 0.375000 0.269889
vt 0.569661 0.250000
vt 0.625000 0.274978
vt 0.616940 0.500000
vt 0.569661 0.500000
vn 0.547239 -0.047331 0.835637
vn 0.549460 0.000000 0.835520
vn 0.549460 0.000000 0.835520
vn 0.546841 -0.053778 0.835508
vn 0.549460 0.000000 -0.835520
vn 0.547239 -0.047331 -0.835637
vn 0.546841 -0.053778 -0.835508
vn 0.549460 0.000000 -0.835520
vn 0.000000 -1.000000 0.000000
vn 0.000000 -1.000000 0.000000
vn 0.000000 -1.000000 0.000000
vn 0.000000 -1.000000 0.000000
vn 0.000000 -1.000000 0.000000
vn 0.000000 -1.000000 0.000000
vn 0.000000 -1.000000 0.000000
vn 0.000000 -1.000000 0.000000
vn 0.525809 -0.173072 0.832809
vn 0.528487 -0.164042 0.832942
vn 0.528487 -0.164042 -0.832942
vn 0.525809 -0.173072 -0.832809
vn 0.488225 -0.264809 0.831572
vn 0.492193 -0.257339 0.831578
vn 0.492194 -0.257339 -0.831578
vn 0.488226 -0.264809 -0.831572
vn 0.000000 -1.000000 0.000000
vn 0.000000 -1.000000 0.000000
vn 0.000000 -1.000000 0.000000
vn 0.000000 -1.000000 0.000000
vn -0.707106 0.000000 0.707107
vn -0.707106 0.000000 0.707107
vn -0.702840 0.063462 0.708512
vn -0.702840 0.063464 0.708512
vn -0.679768 0.189245 0.708592
vn -0.679768 0.189246 0.708592
vn 0.707107 0.000000 0.707107
vn 0.707107 0.000000 0.707107
vn 0.701757 -0.065953 0.709357
vn 0.701757 -0.065954 0.709357
vn 0.666903 -0.229169 0.709029
vn 0.666904 -0.229168 0.709029
vn -0.702840 0.063462 -0.708512
vn -0.702840 0.063464 -0.708512
vn -0.679768 0.189246 -0.708592
vn -0.679768 0.189245 -0.708592
vn -0.707106 0.000000 -0.707107
vn -0.707106 0.000000 -0.707107
vn 0.701758 -0.065953 -0.709356
vn 0.701758 -0.065954 -0.709356
vn 0.666904 -0.229168 -0.709028
vn 0.666904 -0.229169 -0.709028
vn 0.707107 0.000000 -0.707107
vn 0.707107 0.000000 -0.707107
vn -0.636750 0.320273 0.701409
vn -0.636725 0.320339 0.701402
vn -0.636727 0.320340 -0.701400
vn -0.636752 0.320274 -0.701407
vn 0.614242 -0.342478 0.710926
vn 0.614201 -0.342543 0.710931
vn 0.614200 -0.342542 -0.710932
vn 0.614241 -0.342477 -0.710927
vn -0.613149 0.378204 0.693549
vn -0.613149 0.378204 0.693549
vn -0.613152 0.378206 -0.693545
vn -0.613152 0.378206 -0.693545
vn 0.571065 -0.406301 0.713305
vn 0.571065 -0.406301 0.713305
vn 0.571063 -0.406299 -0.713308
vn 0.571063 -0.406299 -0.713308
vn 0.506651 0.530333 0.679744
vn 0.499792 0.534593 0.681482
vn 0.458850 0.558859 0.690748
vn 0.458850 0.558859 0.690748
vn 0.558543 0.480420 0.676185
vn 0.571362 0.472248 0.671214
vn 0.446580 0.543503 0.710754
vn 0.446580 0.543503 0.710754
vn 0.499796 0.534597 -0.681476
vn 0.506654 0.530338 -0.679738
vn 0.458855 0.558864 -0.690741
vn 0.458855 0.558864 -0.690741
vn 0.574058 0.474905 -0.667025
vn 0.561723 0.483060 -0.671655
vn 0.452250 0.547236 -0.704275
vn 0.452250 0.547236 -0.704275
vn -0.164599 0.986361 0.000001
vn -0.164599 0.986361 0.000001
vn -0.164599 0.986361 0.000001
vn -0.164599 0.986361 0.000001
vn 0.990037 0.140798 -0.001467
vn 0.990037 0.140798 -0.001467
vn 0.990037 0.140798 -0.001467
vn 0.990037 0.140798 -0.001467
vn 0.636186 0.771536 -0.000001
vn 0.636186 0.771536 -0.000001
vn 0.636184 0.771537 -0.000001
vn 0.636184 0.771537 -0.000001
vn 0.995650 -0.093172 0.000000
vn 1.000000 0.000000 0.000000
vn 1.000000 0.000000 0.000000
vn 0.995650 -0.093172 0.000000
vn -0.995936 0.090068 0.000000
vn -1.000000 0.000000 0.000000
vn -1.000000 0.000000 0.000000
vn -0.995936 0.090068 0.000000
vn 0.000000 0.000000 -1.000000
vn 0.000000 0.000000 -1.000000
vn 0.000000 0.000000 -1.000000
vn 0.000000 0.000000 -1.000000
vn 0.636187 0.771535 -0.000001
vn 0.636187 0.771535 -0.000001
vn -0.000000 0.000000 1.000000
vn -0.000000 0.000000 1.000000
vn -0.000000 0.000000 1.000000
vn -0.000000 0.000000 1.000000
vn 0.000000 0.000000 1.000000
vn 0.000000 0.000000 1.000000
vn 0.000000 0.000000 1.000000
vn 0.000000 0.000000 1.000000
vn 0.636186 0.771536 -0.000002
vn 0.636186 0.771536 -0.000002
vn 0.000000 0.000000 -1.000000
vn 0.000000 0.000000 -1.000000
vn 0.000000 0.000000 -1.000000
vn 0.000000 0.000000 -1.000000
vn 0.000000 0.000000 1.000000
vn 0.000000 0.000000 1.000000
vn 0.000000 0.000000 -1.000000
vn 0.000000 0.000000 -1.000000
vn -0.963364 0.268196 0.000000
vn -0.963364 0.268196 0.000000
vn -0.000000 0.000000 1.000000
vn -0.000000 0.000000 1.000000
vn 0.945707 -0.325020 0.000000
vn 0.945707 -0.325020 0.000000
vn -0.000000 0.000000 -1.000000
vn -0.000000 0.000000 -1.000000
vn -0.000000 -0.000000 1.000000
vn -0.000000 -0.000000 1.000000
vn 0.000000 0.000000 -1.000000
vn 0.000000 0.000000 -1.000000
vn -0.894921 0.446224 0.000000
vn -0.894921 0.446224 0.000000
vn 0.000000 0.000000 1.000000
vn -0.000000 0.000000 1.000000
vn 0.873379 -0.487040 0.000000
vn 0.873380 -0.487040 0.000000
vn -0.000000 0.000000 -1.000000
vn -0.000000 0.000000 -1.000000
vn 0.464819 -0.307239 0.830390
vn 0.464819 -0.307239 0.830390
vn 0.464820 -0.307240 -0.830389
vn 0.464820 -0.307240 -0.830389
vn -0.000000 -0.000000 1.000000
vn -0.000000 -0.000000 1.000000
vn 0.000000 0.000000 -1.000000
vn 0.000000 0.000000 -1.000000
vn -0.852241 0.523149 0.000000
vn -0.852241 0.523149 0.000000
vn 0.000000 0.000000 1.000000
vn 0.000000 0.000000 1.000000
vn 0.816496 -0.577351 0.000000
vn 0.816496 -0.577351 0.000000
vn 0.000000 0.000000 -1.000000
vn 0.000000 0.000000 -1.000000
vn -0.137393 0.823328 0.550685
vn -0.137393 0.823328 0.550685
vn -0.137393 0.823328 0.550685
vn -0.137393 0.823329 -0.550684
vn -0.137393 0.823329 -0.550684
vn -0.137393 0.823329 -0.550684
vn 0.799134 0.106826 0.591585
vn 0.799134 0.106826 0.591585
vn 0.799134 0.106826 0.591585
vn 0.804624 0.135396 -0.578142
vn 0.804624 0.135396 -0.578142
vn 0.804624 0.135396 -0.578142
s 1
g Magazine
usemtl initialShadingGroup
f 4/44/1 1/1/2 5/45/3 6/57/4
s 2
f 2/41/5 3/53/6 7/50/7 8/2/8
s 3
f 1/4/9 2/41/10 8/2/11 5/7/12
f 5/7/12 8/2/11 31/8/13 32/9/14 22/10/15 21/11/16
s 1
f 4/44/1 6/57/4 11/68/17 10/52/18
s 2
f 7/50/7 3/53/6 9/64/19 12/62/20
s 1
f 10/52/18 11/68/17 15/73/21 14/78/22
s 2
f 12/62/20 9/64/19 13/75/23 16/85/24
s 3
f 27/3/25 28/42/26 2/41/10 1/4/9 18/5/27 17/6/28
s 4
f 17/38/29 18/12/30 20/51/31 19/39/32
f 19/13/32 20/51/31 34/63/33 33/56/34
s 5
f 21/46/35 22/14/36 24/16/37 23/15/38
f 23/47/38 24/16/37 38/70/39 37/58/40
s 6
f 25/40/41 26/55/42 36/66/43 35/54/44
f 26/17/42 25/18/41 28/19/45 27/20/46
s 7
f 29/21/47 30/61/48 40/72/49 39/60/50
f 30/22/48 29/37/47 32/36/51 31/23/52
s 4
f 33/56/34 34/63/33 42/77/53 41/67/54
s 6
f 35/54/44 36/66/43 44/80/55 43/65/56
s 5
f 37/58/40 38/70/39 46/83/57 45/69/58
s 7
f 39/60/50 40/72/49 48/84/59 47/71/60
s 4
f 41/67/54 42/77/53 58/24/61 57/81/62
s 6
f 43/65/56 44/80/55 62/30/63 61/26/64
s 5
f 45/69/58 46/83/57 65/31/65 64/25/66
s 7
f 47/71/60 48/84/59 68/27/67 67/32/68
s 8
f 49/74/69 50/43/70 59/28/71 58/24/72
f 50/43/70 49/74/69 52/82/73 51/35/74
f 51/35/74 52/82/73 64/25/75 63/49/76
s 9
f 53/34/77 54/79/78 61/26/79 60/29/80
f 54/79/78 53/34/77 56/48/81 55/76/82
f 55/76/82 56/48/81 66/33/83 68/27/84
s off
f 57/81/85 59/28/86 60/29/87 62/30/88
f 63/49/89 65/31/90 67/32/91 66/33/92
s 10
f 53/34/93 50/43/94 51/35/95 56/48/96
s 11
f 24/16/97 22/14/98 32/36/99 29/37/100
s 12
f 26/17/101 27/20/102 17/38/103 19/39/104
s 13
f 25/40/105 3/53/106 2/41/107 28/42/108
s 10
f 59/28/109 50/43/94 53/34/93 60/29/110
s 14
f 20/51/111 18/12/112 1/1/113 4/44/114
s 15
f 6/57/115 5/45/116 21/46/117 23/47/118
s 10
f 56/48/96 51/35/95 63/49/119 66/33/120
s 16
f 8/2/121 7/50/122 30/61/123 31/8/124
s 14
f 20/51/111 4/44/114 10/52/125 34/63/126
s 13
f 3/53/106 25/40/105 35/54/127 9/64/128
s 12
f 26/55/101 19/13/104 33/56/129 36/66/130
s 15
f 6/57/115 23/47/118 37/58/131 11/68/132
s 11
f 24/59/97 29/21/100 39/60/133 38/70/134
s 16
f 30/61/123 7/50/122 12/62/135 40/72/136
s 14
f 34/63/126 10/52/125 14/78/137 42/77/138
s 13
f 9/64/128 35/54/127 43/65/139 13/75/140
s 12
f 36/66/130 33/56/129 41/67/141 44/80/142
s 15
f 11/68/132 37/58/131 45/69/143 15/73/144
s 11
f 38/70/134 39/60/133 47/71/145 46/83/146
s 16
f 40/72/136 12/62/135 16/85/147 48/84/148
s 1
f 14/78/22 15/73/21 52/82/149 49/74/150
s 2
f 16/85/24 13/75/23 54/79/151 55/76/152
s 14
f 42/77/138 14/78/137 49/74/153 58/24/154
s 13
f 13/75/140 43/65/139 61/26/155 54/79/156
s 12
f 44/80/142 41/67/141 57/81/157 62/30/158
s 15
f 15/73/144 45/69/143 64/25/159 52/82/160
s 11
f 46/83/146 47/71/145 67/32/161 65/31/162
s 16
f 48/84/148 16/85/147 55/76/163 68/27/164
s off
f 57/81/165 58/24/166 59/28/167
f 60/29/168 61/26/169 62/30/170
f 63/49/171 64/25/172 65/31/173
f 66/33/174 67/32/175 68/27/176
