# This file uses centimeters as units for non-parametric coordinates.

mtllib Rear_sight.mtl
g default
v -3.307481 8.143434 -0.334669
v -2.019472 8.143434 -0.334669
v -3.307481 8.439122 -0.334669
v -2.019472 8.439122 -0.334669
v -3.307481 8.439122 -0.720878
v -2.019472 8.439122 -0.720878
v -3.307481 8.143434 -0.720878
v -2.019472 8.143434 -0.720878
v -2.144796 8.439122 -0.334669
v -2.144796 8.439122 -0.720878
v -2.144796 8.143434 -0.720878
v -2.144796 8.143434 -0.334669
v -3.182157 8.439122 -0.334669
v -3.182157 8.439122 -0.720878
v -3.182157 8.143434 -0.720878
v -3.182157 8.143434 -0.334669
v -2.253156 8.439122 -0.334669
v -2.253156 8.439122 -0.720878
v -2.253156 8.143434 -0.720878
v -2.253156 8.143434 -0.334669
v -3.073797 8.439122 -0.334669
v -3.073797 8.439122 -0.720878
v -3.073797 8.143434 -0.720878
v -3.073797 8.143434 -0.334669
v -3.182157 8.143434 -0.116969
v -3.182157 8.353279 -0.116969
v -3.073797 8.143434 -0.116969
v -3.073797 8.353279 -0.116969
v -2.253156 8.143434 -0.116969
v -2.253156 8.353279 -0.116969
v -2.144796 8.143434 -0.116969
v -2.144796 8.353279 -0.116969
v -3.182157 7.997150 -0.547267
v -3.182157 7.997150 -0.334669
v -3.073797 7.997150 -0.547267
v -3.073797 7.997150 -0.334669
v -2.253156 7.997150 -0.547267
v -2.253156 7.997150 -0.334669
v -2.144796 7.997150 -0.547267
v -2.144796 7.997150 -0.334669
v -2.164227 8.312553 -0.595275
v -2.047487 8.312553 -0.595275
v -2.164227 8.630319 -0.595275
v -2.047487 8.630319 -0.595275
v -2.164227 8.630319 -0.712015
v -2.047487 8.630319 -0.712015
v -2.164227 8.312553 -0.712015
v -2.047487 8.312553 -0.712015
v -2.164227 8.312553 -0.360423
v -2.047487 8.312553 -0.360423
v -2.164227 8.630319 -0.360423
v -2.047487 8.630319 -0.360423
v -2.164227 8.630319 -0.477163
v -2.047487 8.630319 -0.477163
v -2.164227 8.312553 -0.477163
v -2.047487 8.312553 -0.477163
vt 0.375000 0.000000
vt 0.625000 0.000000
vt 0.375000 0.250000
vt 0.625000 0.250000
vt 0.375000 0.500000
vt 0.625000 0.500000
vt 0.375000 0.750000
vt 0.625000 0.750000
vt 0.375000 1.000000
vt 0.625000 1.000000
vt 0.875000 0.000000
vt 0.875000 0.250000
vt 0.125000 0.000000
vt 0.125000 0.250000
vt 0.541667 0.250000
vt 0.541667 0.500000
vt 0.541667 0.750000
vt 0.541667 0.000000
vt 0.541667 1.000000
vt 0.458333 0.250000
vt 0.458333 0.500000
vt 0.458333 0.750000
vt 0.458333 0.000000
vt 0.458333 1.000000
vt 0.513889 0.250000
vt 0.513889 0.500000
vt 0.513889 0.750000
vt 0.513889 0.000000
vt 0.513889 1.000000
vt 0.486111 0.250000
vt 0.486111 0.500000
vt 0.486111 0.750000
vt 0.486111 0.000000
vt 0.486111 1.000000
vt 0.458333 0.250000
vt 0.458333 0.000000
vt 0.486111 0.000000
vt 0.486111 0.250000
vt 0.513889 0.250000
vt 0.513889 0.000000
vt 0.541667 0.000000
vt 0.541667 0.250000
vt 0.458333 1.000000
vt 0.458333 0.750000
vt 0.486111 0.750000
vt 0.486111 1.000000
vt 0.513889 1.000000
vt 0.513889 0.750000
vt 0.541667 0.750000
vt 0.541667 1.000000
vt 0.375000 0.000000
vt 0.625000 0.000000
vt 0.625000 0.250000
vt 0.375000 0.250000
vt 0.625000 0.500000
vt 0.375000 0.500000
vt 0.625000 0.750000
vt 0.375000 0.750000
vt 0.625000 1.000000
vt 0.375000 1.000000
vt 0.875000 0.000000
vt 0.875000 0.250000
vt 0.125000 0.000000
vt 0.125000 0.250000
vt 0.375000 0.000000
vt 0.625000 0.000000
vt 0.625000 0.250000
vt 0.375000 0.250000
vt 0.625000 0.500000
vt 0.375000 0.500000
vt 0.625000 0.750000
vt 0.375000 0.750000
vt 0.625000 1.000000
vt 0.375000 1.000000
vt 0.875000 0.000000
vt 0.875000 0.250000
vt 0.125000 0.000000
vt 0.125000 0.250000
vn 0.000000 0.000000 1.000000
vn 0.000000 0.000000 1.000000
vn 0.000000 0.000000 1.000000
vn 0.000000 0.000000 1.000000
vn 0.000000 1.000000 0.000000
vn 0.000000 1.000000 0.000000
vn 0.000000 1.000000 0.000000
vn 0.000000 1.000000 0.000000
vn 0.000000 0.000000 -1.000000
vn 0.000000 0.000000 -1.000000
vn 0.000000 0.000000 -1.000000
vn 0.000000 0.000000 -1.000000
vn 0.000000 -1.000000 0.000000
vn 0.000000 -1.000000 0.000000
vn 0.000000 -1.000000 0.000000
vn 0.000000 -1.000000 0.000000
vn 1.000000 0.000000 0.000000
vn 1.000000 0.000000 0.000000
vn 1.000000 0.000000 0.000000
vn 1.000000 0.000000 0.000000
vn -1.000000 0.000000 0.000000
vn -1.000000 0.000000 0.000000
vn -1.000000 0.000000 0.000000
vn -1.000000 0.000000 0.000000
vn 0.000000 1.000000 0.000000
vn 0.000000 1.000000 0.000000
vn 0.000000 1.000000 0.000000
vn 0.000000 1.000000 0.000000
vn 0.000000 0.000000 -1.000000
vn 0.000000 0.000000 -1.000000
vn 0.000000 0.000000 -1.000000
vn 0.000000 0.000000 -1.000000
vn 0.000000 -1.000000 0.000000
vn 0.000000 -1.000000 0.000000
vn 0.000000 -1.000000 0.000000
vn 0.000000 -1.000000 0.000000
vn 0.000000 0.000000 1.000000
vn 0.000000 0.000000 1.000000
vn 0.000000 0.000000 1.000000
vn 0.000000 0.000000 1.000000
vn 0.000000 1.000000 0.000000
vn 0.000000 1.000000 0.000000
vn 0.000000 0.000000 -1.000000
vn 0.000000 0.000000 -1.000000
vn 0.000000 -1.000000 0.000000
vn 0.000000 -1.000000 0.000000
vn 0.000000 -1.000000 0.000000
vn 0.000000 -1.000000 0.000000
vn 0.000000 0.000000 1.000000
vn 0.000000 0.000000 1.000000
vn 0.000000 0.000000 1.000000
vn 0.000000 0.000000 1.000000
vn 0.000000 1.000000 0.000000
vn 0.000000 1.000000 0.000000
vn 0.000000 0.000000 -1.000000
vn 0.000000 0.000000 -1.000000
vn 0.000000 -1.000000 0.000000
vn 0.000000 -1.000000 0.000000
vn 0.000000 -1.000000 0.000000
vn 0.000000 -1.000000 0.000000
vn 0.000000 0.000000 1.000000
vn 0.000000 0.000000 1.000000
vn 0.000000 0.000000 1.000000
vn 0.000000 0.000000 1.000000
vn 0.000000 -1.000000 0.000000
vn 0.000000 -1.000000 0.000000
vn 0.000000 -1.000000 0.000000
vn 0.000000 -1.000000 0.000000
vn 0.000000 0.000000 1.000000
vn 0.000000 0.000000 1.000000
vn 0.000000 0.000000 1.000000
vn 0.000000 0.000000 1.000000
vn -1.000000 0.000000 0.000000
vn -1.000000 0.000000 0.000000
vn -1.000000 0.000000 0.000000
vn -1.000000 0.000000 0.000000
vn 0.000000 -1.000000 0.000000
vn 0.000000 -1.000000 0.000000
vn 0.000000 -1.000000 0.000000
vn 0.000000 -1.000000 0.000000
vn 1.000000 0.000000 0.000000
vn 1.000000 0.000000 0.000000
vn 1.000000 0.000000 0.000000
vn 1.000000 0.000000 0.000000
vn 0.000000 0.930287 0.366831
vn 0.000000 0.930287 0.366831
vn 0.000000 0.930287 0.366831
vn 0.000000 0.930287 0.366831
vn -1.000000 0.000000 0.000000
vn -1.000000 0.000000 0.000000
vn -1.000000 0.000000 0.000000
vn -1.000000 0.000000 0.000000
vn 0.000000 -1.000000 0.000000
vn 0.000000 -1.000000 0.000000
vn 0.000000 -1.000000 0.000000
vn 0.000000 -1.000000 0.000000
vn 1.000000 0.000000 0.000000
vn 1.000000 0.000000 0.000000
vn 1.000000 0.000000 0.000000
vn 1.000000 0.000000 0.000000
vn 0.000000 0.930288 0.366829
vn 0.000000 0.930288 0.366829
vn 0.000000 0.930288 0.366829
vn 0.000000 0.930288 0.366829
vn -1.000000 0.000000 0.000000
vn -1.000000 0.000000 0.000000
vn -1.000000 0.000000 0.000000
vn -1.000000 0.000000 0.000000
vn 0.000000 -0.764729 -0.644352
vn 0.000000 -0.764729 -0.644352
vn 0.000000 -0.764729 -0.644352
vn 0.000000 -0.764729 -0.644352
vn 1.000000 0.000001 0.000000
vn 1.000000 0.000001 0.000000
vn 1.000000 0.000001 0.000000
vn 1.000000 0.000001 0.000000
vn 0.000000 0.000000 1.000000
vn 0.000000 0.000000 1.000000
vn 0.000000 0.000000 1.000000
vn 0.000000 0.000000 1.000000
vn -1.000000 -0.000001 0.000000
vn -1.000000 -0.000001 0.000000
vn -1.000000 -0.000001 0.000000
vn -1.000000 -0.000001 0.000000
vn 0.000000 -0.764728 -0.644353
vn 0.000000 -0.764728 -0.644353
vn 0.000000 -0.764728 -0.644353
vn 0.000000 -0.764728 -0.644353
vn 1.000000 0.000000 0.000000
vn 1.000000 0.000000 0.000000
vn 1.000000 0.000000 0.000000
vn 1.000000 0.000000 0.000000
vn 0.000000 0.000000 1.000000
vn 0.000000 0.000000 1.000000
vn 0.000000 0.000000 1.000000
vn 0.000000 0.000000 1.000000
vn 0.000000 0.000000 1.000000
vn 0.000000 0.000000 1.000000
vn 0.000000 0.000000 1.000000
vn 0.000000 0.000000 1.000000
vn 0.000000 1.000000 0.000000
vn 0.000000 1.000000 0.000000
vn 0.000000 1.000000 0.000000
vn 0.000000 1.000000 0.000000
vn 0.000000 0.000000 -1.000000
vn 0.000000 0.000000 -1.000000
vn 0.000000 0.000000 -1.000000
vn 0.000000 0.000000 -1.000000
vn 0.000000 -1.000000 0.000000
vn 0.000000 -1.000000 0.000000
vn 0.000000 -1.000000 0.000000
vn 0.000000 -1.000000 0.000000
vn 1.000000 0.000000 0.000000
vn 1.000000 0.000000 0.000000
vn 1.000000 0.000000 0.000000
vn 1.000000 0.000000 0.000000
vn -1.000000 0.000000 0.000000
vn -1.000000 0.000000 0.000000
vn -1.000000 0.000000 0.000000
vn -1.000000 0.000000 0.000000
vn 0.000000 0.000000 1.000000
vn 0.000000 0.000000 1.000000
vn 0.000000 0.000000 1.000000
vn 0.000000 0.000000 1.000000
vn 0.000000 1.000000 0.000000
vn 0.000000 1.000000 0.000000
vn 0.000000 1.000000 0.000000
vn 0.000000 1.000000 0.000000
vn 0.000000 0.000000 -1.000000
vn 0.000000 0.000000 -1.000000
vn 0.000000 0.000000 -1.000000
vn 0.000000 0.000000 -1.000000
vn 0.000000 -1.000000 0.000000
vn 0.000000 -1.000000 0.000000
vn 0.000000 -1.000000 0.000000
vn 0.000000 -1.000000 0.000000
vn 1.000000 0.000000 0.000000
vn 1.000000 0.000000 0.000000
vn 1.000000 0.000000 0.000000
vn 1.000000 0.000000 0.000000
vn -1.000000 0.000000 0.000000
vn -1.000000 0.000000 0.000000
vn -1.000000 0.000000 0.000000
vn -1.000000 0.000000 0.000000
s off
g Rear_sight
usemtl initialShadingGroup
f 1/1/1 16/23/2 13/20/3 3/3/4
s 1
f 3/3/5 13/20/6 14/21/7 5/5/8
s 2
f 5/5/9 14/21/10 15/22/11 7/7/12
s off
f 7/7/13 15/22/14 16/24/15 1/9/16
f 2/2/17 8/11/18 6/12/19 4/4/20
f 7/13/21 1/1/22 3/3/23 5/14/24
s 1
f 9/15/25 4/4/26 6/6/27 10/16/28
s 2
f 11/17/29 10/16/30 6/6/31 8/8/32
s off
f 12/19/33 11/17/34 8/8/35 2/10/36
f 9/15/37 12/18/38 2/2/39 4/4/40
s 1
f 13/20/6 21/30/41 22/31/42 14/21/7
s 2
f 15/22/11 14/21/10 22/31/43 23/32/44
s off
f 34/43/45 33/44/46 35/45/47 36/46/48
f 26/35/49 25/36/50 27/37/51 28/38/52
s 1
f 17/25/53 9/15/25 10/16/28 18/26/54
s 2
f 19/27/55 18/26/56 10/16/30 11/17/29
s off
f 38/47/57 37/48/58 39/49/59 40/50/60
f 30/39/61 29/40/62 31/41/63 32/42/64
s 1
f 21/30/41 17/25/53 18/26/54 22/31/42
s 2
f 23/32/44 22/31/43 18/26/56 19/27/55
s off
f 24/34/65 23/32/66 19/27/67 20/29/68
f 21/30/69 24/33/70 20/28/71 17/25/72
f 13/20/73 16/23/74 25/36/75 26/35/76
f 16/23/77 24/33/78 27/37/79 25/36/80
f 24/33/81 21/30/82 28/38/83 27/37/84
f 21/30/85 13/20/86 26/35/87 28/38/88
f 17/25/89 20/28/90 29/40/91 30/39/92
f 20/28/93 12/18/94 31/41/95 29/40/96
f 12/18/97 9/15/98 32/42/99 31/41/100
f 9/15/101 17/25/102 30/39/103 32/42/104
f 16/24/105 15/22/106 33/44/107 34/43/108
f 15/22/109 23/32/110 35/45/111 33/44/112
f 23/32/113 24/34/114 36/46/115 35/45/116
f 24/34/117 16/24/118 34/43/119 36/46/120
f 20/29/121 19/27/122 37/48/123 38/47/124
f 19/27/125 11/17/126 39/49/127 37/48/128
f 11/17/129 12/19/130 40/50/131 39/49/132
f 12/19/133 20/29/134 38/47/135 40/50/136
f 41/51/137 42/52/138 44/53/139 43/54/140
f 43/54/141 44/53/142 46/55/143 45/56/144
f 45/56/145 46/55/146 48/57/147 47/58/148
f 47/58/149 48/57/150 42/59/151 41/60/152
f 42/52/153 48/61/154 46/62/155 44/53/156
f 47/63/157 41/51/158 43/54/159 45/64/160
f 49/65/161 50/66/162 52/67/163 51/68/164
f 51/68/165 52/67/166 54/69/167 53/70/168
f 53/70/169 54/69/170 56/71/171 55/72/172
f 55/72/173 56/71/174 50/73/175 49/74/176
f 50/66/177 56/75/178 54/76/179 52/67/180
f 55/77/181 49/65/182 51/68/183 53/78/184
